<svg width="42" height="42" viewBox="0 0 42 42" fill="none" xmlns="http://www.w3.org/2000/svg">
<g clip-path="url(#clip0_37_9)">
<path d="M20.0489 2.92803C20.3483 2.00672 21.6517 2.00672 21.9511 2.92803L25.7597 14.6498C25.8936 15.0618 26.2775 15.3408 26.7108 15.3408H39.0358C40.0045 15.3408 40.4073 16.5804 39.6236 17.1498L29.6524 24.3943C29.3019 24.6489 29.1553 25.1003 29.2891 25.5123L33.0978 37.2341C33.3971 38.1554 32.3427 38.9215 31.5589 38.3521L21.5878 31.1077C21.2373 30.853 20.7627 30.853 20.4122 31.1077L10.4411 38.3521C9.65736 38.9215 8.60288 38.1554 8.90223 37.2341L12.7109 25.5123C12.8447 25.1003 12.6981 24.6489 12.3476 24.3943L2.37645 17.1498C1.59273 16.5804 1.99551 15.3408 2.96423 15.3408H15.2893C15.7225 15.3408 16.1064 15.0618 16.2403 14.6498L20.0489 2.92803Z" fill="#4979D1"/>
</g>
<defs>
<clipPath id="clip0_37_9">
<rect width="42" height="42" fill="white"/>
</clipPath>
</defs>
</svg>
